<svg xmlns="http://www.w3.org/2000/svg" xmlns:xlink="http://www.w3.org/1999/xlink" width="80" zoomAndPan="magnify" viewBox="0 0 60 60" height="80" preserveAspectRatio="xMidYMid meet" version="1.0"><defs><g><g id="id1"/></g></defs><g fill="rgb(100%, 100%, 100%)" fill-opacity="1"><g transform="translate(16.163758, 24.653985)"><g><path d="M 4.0625 -7.34375 L 5.03125 -7.34375 C 5.1875 -7.34375 5.265625 -7.265625 5.265625 -7.109375 L 5.265625 -1.859375 C 5.265625 -1.265625 5.097656 -0.804688 4.765625 -0.484375 C 4.441406 -0.160156 3.984375 0 3.390625 0 L 2.25 0 C 1.644531 0 1.175781 -0.15625 0.84375 -0.46875 C 0.519531 -0.789062 0.359375 -1.253906 0.359375 -1.859375 L 0.359375 -2.9375 C 0.359375 -3.09375 0.441406 -3.171875 0.609375 -3.171875 L 1.578125 -3.171875 C 1.734375 -3.171875 1.8125 -3.09375 1.8125 -2.9375 L 1.8125 -1.9375 C 1.8125 -1.6875 1.863281 -1.507812 1.96875 -1.40625 C 2.070312 -1.300781 2.242188 -1.25 2.484375 -1.25 L 3.15625 -1.25 C 3.394531 -1.25 3.5625 -1.300781 3.65625 -1.40625 C 3.757812 -1.507812 3.8125 -1.6875 3.8125 -1.9375 L 3.8125 -7.109375 C 3.8125 -7.265625 3.894531 -7.34375 4.0625 -7.34375 Z M 4.0625 -7.34375 "/></g></g></g><g fill="rgb(100%, 100%, 100%)" fill-opacity="1"><g transform="translate(23.036001, 24.653985)"><g><path d="M 2.734375 -1.25 L 3.546875 -1.25 C 3.796875 -1.25 3.96875 -1.300781 4.0625 -1.40625 C 4.164062 -1.507812 4.21875 -1.6875 4.21875 -1.9375 L 4.21875 -5.40625 C 4.21875 -5.65625 4.164062 -5.832031 4.0625 -5.9375 C 3.96875 -6.039062 3.796875 -6.09375 3.546875 -6.09375 L 2.734375 -6.09375 C 2.492188 -6.09375 2.320312 -6.039062 2.21875 -5.9375 C 2.125 -5.832031 2.078125 -5.65625 2.078125 -5.40625 L 2.078125 -1.9375 C 2.078125 -1.6875 2.125 -1.507812 2.21875 -1.40625 C 2.320312 -1.300781 2.492188 -1.25 2.734375 -1.25 Z M 3.796875 0 L 2.515625 0 C 1.910156 0 1.441406 -0.15625 1.109375 -0.46875 C 0.785156 -0.789062 0.625 -1.253906 0.625 -1.859375 L 0.625 -5.484375 C 0.625 -6.085938 0.785156 -6.546875 1.109375 -6.859375 C 1.441406 -7.179688 1.910156 -7.34375 2.515625 -7.34375 L 3.796875 -7.34375 C 4.390625 -7.34375 4.847656 -7.179688 5.171875 -6.859375 C 5.503906 -6.546875 5.671875 -6.085938 5.671875 -5.484375 L 5.671875 -1.859375 C 5.671875 -1.253906 5.503906 -0.789062 5.171875 -0.46875 C 4.847656 -0.15625 4.390625 0 3.796875 0 Z M 3.796875 0 "/></g></g></g><g fill="rgb(100%, 100%, 100%)" fill-opacity="1"><g transform="translate(30.262084, 24.653985)"><g><path d="M 2.640625 -8.015625 C 2.085938 -8.015625 1.8125 -8.304688 1.8125 -8.890625 L 1.8125 -9.328125 C 1.8125 -9.378906 1.816406 -9.410156 1.828125 -9.421875 C 1.847656 -9.441406 1.882812 -9.453125 1.9375 -9.453125 L 2.390625 -9.453125 C 2.472656 -9.453125 2.515625 -9.410156 2.515625 -9.328125 L 2.515625 -9.1875 C 2.515625 -9.019531 2.523438 -8.910156 2.546875 -8.859375 C 2.566406 -8.804688 2.601562 -8.78125 2.65625 -8.78125 C 2.707031 -8.78125 2.753906 -8.800781 2.796875 -8.84375 C 2.835938 -8.882812 2.9375 -9.003906 3.09375 -9.203125 C 3.257812 -9.410156 3.472656 -9.515625 3.734375 -9.515625 C 4.285156 -9.515625 4.5625 -9.222656 4.5625 -8.640625 L 4.5625 -8.21875 C 4.5625 -8.113281 4.519531 -8.0625 4.4375 -8.0625 L 3.984375 -8.0625 C 3.910156 -8.0625 3.875 -8.113281 3.875 -8.21875 L 3.875 -8.328125 C 3.875 -8.492188 3.859375 -8.601562 3.828125 -8.65625 C 3.804688 -8.707031 3.765625 -8.734375 3.703125 -8.734375 C 3.609375 -8.734375 3.492188 -8.628906 3.359375 -8.421875 C 3.160156 -8.148438 2.921875 -8.015625 2.640625 -8.015625 Z M 1.5 0 L 0.40625 0 C 0.269531 0 0.226562 -0.078125 0.28125 -0.234375 L 2.078125 -7.109375 C 2.128906 -7.265625 2.242188 -7.34375 2.421875 -7.34375 L 3.9375 -7.34375 C 4.125 -7.34375 4.238281 -7.265625 4.28125 -7.109375 L 6.09375 -0.234375 C 6.132812 -0.078125 6.085938 0 5.953125 0 L 4.859375 0 C 4.773438 0 4.71875 -0.015625 4.6875 -0.046875 C 4.65625 -0.0859375 4.628906 -0.148438 4.609375 -0.234375 L 4.296875 -1.5 L 2.0625 -1.5 L 1.75 -0.234375 C 1.726562 -0.148438 1.703125 -0.0859375 1.671875 -0.046875 C 1.640625 -0.015625 1.582031 0 1.5 0 Z M 3.15625 -5.96875 L 2.34375 -2.65625 L 4.03125 -2.65625 L 3.203125 -5.96875 Z M 3.15625 -5.96875 "/></g></g></g><g fill="rgb(100%, 100%, 100%)" fill-opacity="1"><g transform="translate(37.533828, 24.653985)"><g><path d="M 2.734375 -1.25 L 3.546875 -1.25 C 3.796875 -1.25 3.96875 -1.300781 4.0625 -1.40625 C 4.164062 -1.507812 4.21875 -1.6875 4.21875 -1.9375 L 4.21875 -5.40625 C 4.21875 -5.65625 4.164062 -5.832031 4.0625 -5.9375 C 3.96875 -6.039062 3.796875 -6.09375 3.546875 -6.09375 L 2.734375 -6.09375 C 2.492188 -6.09375 2.320312 -6.039062 2.21875 -5.9375 C 2.125 -5.832031 2.078125 -5.65625 2.078125 -5.40625 L 2.078125 -1.9375 C 2.078125 -1.6875 2.125 -1.507812 2.21875 -1.40625 C 2.320312 -1.300781 2.492188 -1.25 2.734375 -1.25 Z M 3.796875 0 L 2.515625 0 C 1.910156 0 1.441406 -0.15625 1.109375 -0.46875 C 0.785156 -0.789062 0.625 -1.253906 0.625 -1.859375 L 0.625 -5.484375 C 0.625 -6.085938 0.785156 -6.546875 1.109375 -6.859375 C 1.441406 -7.179688 1.910156 -7.34375 2.515625 -7.34375 L 3.796875 -7.34375 C 4.390625 -7.34375 4.847656 -7.179688 5.171875 -6.859375 C 5.503906 -6.546875 5.671875 -6.085938 5.671875 -5.484375 L 5.671875 -1.859375 C 5.671875 -1.253906 5.503906 -0.789062 5.171875 -0.46875 C 4.847656 -0.15625 4.390625 0 3.796875 0 Z M 3.796875 0 "/></g></g></g><g fill="rgb(100%, 100%, 100%)" fill-opacity="1"><g transform="translate(14.851258, 40.403984)"><g><path d="M 3.734375 0 L 2.234375 0 C 2.078125 0 1.984375 -0.078125 1.953125 -0.234375 L 0.1875 -7.078125 C 0.132812 -7.253906 0.207031 -7.34375 0.40625 -7.34375 L 1.484375 -7.34375 C 1.640625 -7.34375 1.734375 -7.265625 1.765625 -7.109375 L 2.953125 -1.484375 L 3 -1.484375 L 4.203125 -7.109375 C 4.234375 -7.265625 4.328125 -7.34375 4.484375 -7.34375 L 5.546875 -7.34375 C 5.742188 -7.34375 5.820312 -7.253906 5.78125 -7.078125 L 4.015625 -0.234375 C 3.972656 -0.078125 3.878906 0 3.734375 0 Z M 3.734375 0 "/></g></g></g><g fill="rgb(100%, 100%, 100%)" fill-opacity="1"><g transform="translate(21.723501, 40.403984)"><g><path d="M 2.25 -7.109375 L 2.25 -0.234375 C 2.25 -0.078125 2.171875 0 2.015625 0 L 1.046875 0 C 0.878906 0 0.796875 -0.078125 0.796875 -0.234375 L 0.796875 -7.109375 C 0.796875 -7.265625 0.878906 -7.34375 1.046875 -7.34375 L 2.015625 -7.34375 C 2.171875 -7.34375 2.25 -7.265625 2.25 -7.109375 Z M 2.25 -7.109375 "/></g></g></g><g fill="rgb(100%, 100%, 100%)" fill-opacity="1"><g transform="translate(25.696578, 40.403984)"><g><path d="M 3.015625 0 L 2.0625 0 C 1.882812 0 1.796875 -0.078125 1.796875 -0.234375 L 1.796875 -5.96875 C 1.796875 -6.050781 1.753906 -6.09375 1.671875 -6.09375 L 0.375 -6.09375 C 0.21875 -6.09375 0.140625 -6.171875 0.140625 -6.328125 L 0.140625 -7.109375 C 0.140625 -7.265625 0.21875 -7.34375 0.375 -7.34375 L 4.6875 -7.34375 C 4.851562 -7.34375 4.9375 -7.265625 4.9375 -7.109375 L 4.9375 -6.328125 C 4.9375 -6.171875 4.851562 -6.09375 4.6875 -6.09375 L 3.390625 -6.09375 C 3.296875 -6.09375 3.25 -6.050781 3.25 -5.96875 L 3.25 -0.234375 C 3.25 -0.078125 3.171875 0 3.015625 0 Z M 3.015625 0 "/></g></g></g><g fill="rgb(100%, 100%, 100%)" fill-opacity="1"><g transform="translate(31.678527, 40.403984)"><g><path d="M 2.734375 -1.25 L 3.546875 -1.25 C 3.796875 -1.25 3.96875 -1.300781 4.0625 -1.40625 C 4.164062 -1.507812 4.21875 -1.6875 4.21875 -1.9375 L 4.21875 -5.40625 C 4.21875 -5.65625 4.164062 -5.832031 4.0625 -5.9375 C 3.96875 -6.039062 3.796875 -6.09375 3.546875 -6.09375 L 2.734375 -6.09375 C 2.492188 -6.09375 2.320312 -6.039062 2.21875 -5.9375 C 2.125 -5.832031 2.078125 -5.65625 2.078125 -5.40625 L 2.078125 -1.9375 C 2.078125 -1.6875 2.125 -1.507812 2.21875 -1.40625 C 2.320312 -1.300781 2.492188 -1.25 2.734375 -1.25 Z M 3.796875 0 L 2.515625 0 C 1.910156 0 1.441406 -0.15625 1.109375 -0.46875 C 0.785156 -0.789062 0.625 -1.253906 0.625 -1.859375 L 0.625 -5.484375 C 0.625 -6.085938 0.785156 -6.546875 1.109375 -6.859375 C 1.441406 -7.179688 1.910156 -7.34375 2.515625 -7.34375 L 3.796875 -7.34375 C 4.390625 -7.34375 4.847656 -7.179688 5.171875 -6.859375 C 5.503906 -6.546875 5.671875 -6.085938 5.671875 -5.484375 L 5.671875 -1.859375 C 5.671875 -1.253906 5.503906 -0.789062 5.171875 -0.46875 C 4.847656 -0.15625 4.390625 0 3.796875 0 Z M 3.796875 0 "/></g></g></g><g fill="rgb(100%, 100%, 100%)" fill-opacity="1"><g transform="translate(38.90461, 40.403984)"><g><path d="M 1.953125 0 L 0.984375 0 C 0.828125 0 0.75 -0.078125 0.75 -0.234375 L 0.75 -7.109375 C 0.75 -7.265625 0.828125 -7.34375 0.984375 -7.34375 L 3.703125 -7.34375 C 4.296875 -7.34375 4.757812 -7.175781 5.09375 -6.84375 C 5.425781 -6.519531 5.59375 -6.0625 5.59375 -5.46875 L 5.59375 -4.578125 C 5.59375 -3.722656 5.253906 -3.148438 4.578125 -2.859375 L 4.578125 -2.828125 L 5.796875 -0.28125 C 5.867188 -0.09375 5.804688 0 5.609375 0 L 4.6875 0 C 4.550781 0 4.453125 -0.015625 4.390625 -0.046875 C 4.328125 -0.078125 4.273438 -0.140625 4.234375 -0.234375 L 3.09375 -2.703125 L 2.328125 -2.703125 C 2.234375 -2.703125 2.1875 -2.660156 2.1875 -2.578125 L 2.1875 -0.234375 C 2.1875 -0.078125 2.109375 0 1.953125 0 Z M 2.3125 -3.875 L 3.4375 -3.875 C 3.675781 -3.875 3.851562 -3.925781 3.96875 -4.03125 C 4.082031 -4.132812 4.140625 -4.296875 4.140625 -4.515625 L 4.140625 -5.40625 C 4.140625 -5.644531 4.082031 -5.816406 3.96875 -5.921875 C 3.851562 -6.035156 3.675781 -6.09375 3.4375 -6.09375 L 2.3125 -6.09375 C 2.226562 -6.09375 2.1875 -6.050781 2.1875 -5.96875 L 2.1875 -4 C 2.1875 -3.914062 2.226562 -3.875 2.3125 -3.875 Z M 2.3125 -3.875 "/></g></g></g><path stroke-linecap="round" transform="matrix(0.607002, 0, 0, 0.604576, 26.762969, 45.151102)" fill="none" stroke-linejoin="miter" d="M 0.499895 0.00205439 L 10.21079 0.00205439 " stroke="rgb(100%, 100%, 100%)" stroke-width="1" stroke-opacity="1" stroke-miterlimit="4"/></svg>